<?xml version="1.0" encoding="UTF-8"?>
<svg width="100px" height="100px" viewBox="0 0 100 100" version="1.1" xmlns="http://www.w3.org/2000/svg" xmlns:xlink="http://www.w3.org/1999/xlink">
    <!-- Generator: Sketch 51.3 (57544) - http://www.bohemiancoding.com/sketch -->
    <title>noun_code_679732</title>
    <desc>Created with Sketch.</desc>
    <defs></defs>
    <g id="Page-1" stroke="none" stroke-width="1" fill="none" fill-rule="evenodd">
        <g id="noun_code_679732" fill="#FFFFFF" fill-rule="nonzero">
            <path d="M96.5,47.05 L91.7,38.65 L91.7,29.35 C91.7,27.25 90.6,25.35 88.8,24.25 L80.7,19.55 L75.8,11.35 C74.8,9.55 72.8,8.45 70.7,8.45 L61.1,8.45 L52.9,3.75 C51.1,2.75 48.8,2.75 47,3.75 L38.8,8.45 L29.4,8.45 C27.3,8.45 25.4,9.55 24.3,11.35 L19.7,19.45 L11.3,24.25 C9.5,25.25 8.4,27.25 8.4,29.35 L8.4,38.95 L3.8,46.95 C3.3,47.85 3,48.85 3,49.85 C3,50.85 3.3,51.85 3.8,52.75 L8.4,60.75 L8.4,70.35 C8.4,72.45 9.5,74.35 11.3,75.45 L19.7,80.25 L24.4,88.35 C25.4,90.15 27.4,91.25 29.5,91.25 L38.9,91.25 L47.1,95.95 C48,96.45 49,96.75 50,96.75 C51,96.75 52,96.45 52.9,95.95 L61.1,91.25 L70.8,91.25 C72.9,91.25 74.8,90.15 75.9,88.35 L80.7,80.05 L88.8,75.35 C90.6,74.35 91.7,72.35 91.7,70.25 L91.7,60.95 L96.5,52.55 C97.5,51.15 97.5,48.85 96.5,47.05 Z M36.5,58.95 L23.8,48.75 L36.6,39.45 L39.6,43.65 L32.3,48.95 L39.7,54.95 L36.5,58.95 Z M47.4,65.85 L42.5,64.15 L53.4,32.75 L58.3,34.45 L47.4,65.85 Z M63.8,58.95 L60.6,54.95 L68,48.95 L60.7,43.65 L63.7,39.45 L76.5,48.75 L63.8,58.95 Z" id="Shape"></path>
        </g>
    </g>
</svg>